<svg xmlns="http://www.w3.org/2000/svg" width="813" height="813" viewBox="0 0 813 813">
<g>
<path d="M 325.33 760.94 C324.14,760.97 322.56,761.19 321.83,761.43 C319.79,762.10 311.16,759.50 308.17,757.33 C302.59,753.26 299.40,742.46 302.02,736.50 C302.59,735.19 302.71,736.41 302.37,740.00 C301.77,746.21 303.38,751.16 307.16,754.68 C310.05,757.37 317.75,760.10 320.50,759.41 C321.63,759.13 323.66,759.34 325.02,759.89 C327.35,760.81 327.37,760.88 325.33,760.94 ZM 431.04 417.36 C429.61,418.79 394.98,419.44 393.00,418.07 C391.95,417.35 395.72,417.21 405.50,417.60 C413.20,417.91 422.33,417.75 425.79,417.24 C430.14,416.60 431.76,416.64 431.04,417.36 Z" fill="rgb(27,100,217)"/>
<path d="M 333.50 757.92 C330.90,759.16 328.70,760.05 326.68,760.61 C326.44,760.46 325.89,760.23 325.02,759.89 C323.66,759.34 321.63,759.13 320.50,759.41 C317.75,760.10 310.05,757.37 307.16,754.68 C303.38,751.16 301.77,746.21 302.37,740.00 C302.71,736.41 302.59,735.19 302.02,736.50 C301.97,736.62 301.92,736.73 301.87,736.85 C302.17,735.29 302.53,733.99 302.86,733.41 C304.25,730.96 307.88,718.27 308.30,714.38 C308.48,712.75 308.92,710.94 309.28,710.36 C310.44,708.48 315.12,683.76 314.58,682.35 C314.29,681.60 314.53,679.75 315.10,678.24 C316.06,675.74 317.23,659.84 317.36,647.50 C317.44,639.70 316.06,616.91 315.44,615.91 C315.14,615.41 314.69,612.69 314.45,609.87 C314.22,607.04 313.57,604.19 313.02,603.52 C312.47,602.86 312.25,602.09 312.53,601.80 C313.09,601.24 310.25,588.21 309.20,586.54 C308.85,585.97 308.40,584.38 308.21,583.00 C308.03,581.62 307.45,580.35 306.93,580.16 C306.41,579.98 306.20,579.49 306.46,579.07 C306.99,578.21 303.14,567.17 299.65,559.54 C298.38,556.77 297.36,554.28 297.39,554.00 C297.47,553.21 285.81,531.56 285.00,531.00 C284.60,530.72 283.95,529.49 283.57,528.25 C283.18,527.01 282.45,526.00 281.93,526.00 C281.42,526.00 281.00,525.42 281.00,524.71 C281.00,523.22 267.14,501.66 265.86,501.17 C265.39,500.98 265.00,500.20 265.00,499.42 C265.00,498.64 264.62,498.00 264.16,498.00 C263.70,498.00 262.85,496.99 262.27,495.75 C261.36,493.80 243.70,469.82 240.61,466.32 C238.81,464.30 237.65,462.72 235.00,458.76 C233.62,456.70 232.16,455.01 231.75,455.01 C231.34,455.00 231.00,454.33 231.00,453.50 C231.00,452.67 230.55,452.00 230.00,452.00 C229.45,452.00 229.00,451.39 229.00,450.65 C229.00,449.90 227.82,448.02 226.38,446.47 C224.94,444.92 222.96,442.26 221.97,440.57 C220.99,438.88 216.53,431.42 212.07,424.00 C207.60,416.58 203.42,409.04 202.78,407.25 C202.13,405.46 201.24,404.00 200.80,404.00 C200.36,404.00 200.09,403.66 200.20,403.25 C200.54,402.00 197.65,395.00 196.80,395.00 C196.36,395.00 196.08,394.66 196.18,394.25 C196.56,392.70 193.64,385.00 192.68,385.00 C192.12,385.00 191.93,384.74 192.25,384.42 C192.75,383.91 190.33,375.64 188.33,371.00 C187.97,370.17 187.74,369.20 187.82,368.83 C187.89,368.45 187.27,365.98 186.43,363.33 C185.60,360.67 184.69,356.95 184.42,355.06 C184.15,353.17 183.50,351.11 182.98,350.47 C182.45,349.84 182.25,349.08 182.54,348.79 C182.83,348.50 182.59,346.29 182.01,343.88 C181.42,341.47 180.71,337.25 180.43,334.50 C180.15,331.75 179.54,328.12 179.09,326.43 C177.97,322.27 177.97,271.21 179.09,268.26 C179.58,266.97 180.19,263.56 180.44,260.70 C180.69,257.84 182.05,250.77 183.47,245.00 C184.89,239.23 186.21,233.60 186.39,232.50 C186.58,231.40 187.00,229.82 187.31,229.00 C187.63,228.18 189.29,223.23 191.01,218.00 C194.32,207.90 201.24,191.41 206.32,181.50 C208.01,178.20 209.31,175.16 209.20,174.75 C209.09,174.34 209.48,174.00 210.06,174.00 C210.64,174.00 210.86,173.59 210.55,173.09 C210.24,172.58 210.37,172.02 210.84,171.84 C211.31,171.65 213.65,168.35 216.04,164.50 C224.49,150.87 236.95,135.05 248.67,123.05 C253.80,117.80 257.99,113.16 258.00,112.75 C258.00,112.34 258.36,112.00 258.79,112.00 C259.22,112.00 261.48,110.31 263.80,108.25 C266.12,106.19 269.60,103.38 271.53,102.00 C273.47,100.62 276.28,98.48 277.78,97.23 C279.27,95.98 283.42,93.05 287.00,90.73 C290.58,88.41 293.65,86.17 293.83,85.75 C294.02,85.34 294.77,85.00 295.51,85.00 C296.25,85.00 297.47,84.44 298.21,83.75 C299.97,82.12 318.80,72.93 326.50,69.95 C329.80,68.67 332.81,67.16 333.20,66.59 C333.58,66.02 334.22,65.88 334.62,66.28 C335.01,66.68 336.28,66.40 337.42,65.66 C338.56,64.92 341.16,64.05 343.20,63.73 C345.23,63.41 348.38,62.48 350.20,61.66 C353.86,60.02 357.57,59.11 363.32,58.44 C365.43,58.19 367.90,57.61 368.82,57.14 C369.75,56.66 372.68,56.21 375.34,56.13 C378.00,56.05 381.04,55.52 382.09,54.95 C383.15,54.39 385.02,54.04 386.25,54.18 C387.49,54.31 393.67,54.07 400.00,53.63 C407.49,53.11 416.73,53.27 426.50,54.09 C434.75,54.78 442.85,55.39 444.50,55.45 C446.15,55.50 448.07,55.90 448.76,56.34 C449.45,56.77 450.91,56.84 452.01,56.50 C453.10,56.15 454.00,56.30 454.00,56.84 C454.00,57.37 456.26,58.12 459.01,58.50 C461.77,58.88 466.81,60.03 470.21,61.06 C473.61,62.09 476.56,62.77 476.77,62.56 C476.97,62.36 478.29,62.79 479.70,63.52 C481.10,64.25 482.87,64.60 483.62,64.31 C484.38,64.02 485.00,64.28 485.00,64.89 C485.00,65.50 486.04,66.00 487.30,66.00 C488.57,66.00 490.03,66.40 490.55,66.89 C491.07,67.38 494.88,69.24 499.00,71.02 C509.78,75.67 518.86,80.18 523.73,83.29 C526.06,84.78 528.42,86.00 528.98,86.00 C529.54,86.00 530.79,86.70 531.75,87.55 C532.71,88.41 538.38,92.67 544.34,97.03 C550.30,101.40 557.68,107.33 560.75,110.23 C570.74,119.68 583.13,132.42 585.82,136.00 C587.27,137.93 589.70,140.82 591.23,142.44 C592.75,144.06 594.00,145.73 594.00,146.16 C594.00,146.58 595.27,148.41 596.83,150.22 C598.38,152.02 601.10,155.98 602.86,159.00 C607.79,167.46 608.25,168.22 610.99,172.50 C612.40,174.70 614.97,179.65 616.71,183.50 C618.45,187.35 621.53,194.10 623.55,198.50 C625.58,202.90 628.94,211.68 631.02,218.00 C644.06,257.65 646.96,294.84 640.30,337.00 C639.48,342.23 638.58,347.85 638.32,349.50 C636.59,360.24 626.79,394.28 623.05,402.50 C622.55,403.60 621.19,407.20 620.03,410.50 C618.86,413.80 617.21,418.08 616.34,420.00 C613.99,425.25 608.26,437.60 604.51,445.50 C594.56,466.46 592.85,469.81 590.53,472.95 C589.14,474.84 588.00,476.71 588.00,477.11 C588.00,478.62 569.09,510.53 560.51,523.50 C555.30,531.37 549.60,540.16 548.41,542.16 C547.81,543.16 546.63,544.78 545.78,545.74 C544.93,546.71 541.21,551.95 537.52,557.38 C533.83,562.82 528.93,569.57 526.64,572.38 C524.35,575.20 521.37,579.30 520.03,581.50 C518.68,583.70 517.19,585.66 516.71,585.86 C516.22,586.06 513.16,589.89 509.91,594.36 C506.66,598.84 502.96,603.62 501.69,605.00 C500.42,606.38 497.16,610.19 494.44,613.48 C473.78,638.50 434.28,679.40 413.50,697.30 C405.80,703.93 398.78,710.06 397.89,710.93 C396.06,712.72 393.53,714.84 386.47,720.46 C383.74,722.65 380.83,725.16 380.00,726.05 C378.37,727.81 372.33,732.30 361.75,739.60 C358.04,742.17 355.00,744.55 355.00,744.89 C355.00,745.23 353.73,746.07 352.19,746.76 C350.64,747.44 348.48,748.79 347.40,749.75 C344.76,752.08 340.76,754.43 333.50,757.92 ZM 431.04 417.36 C431.76,416.64 430.14,416.60 425.79,417.24 C424.05,417.50 420.86,417.67 417.15,417.73 C427.05,417.15 438.18,415.97 440.24,414.90 C441.19,414.41 443.01,414.00 444.27,414.00 C445.54,414.00 448.34,413.10 450.50,412.00 C452.66,410.90 455.23,410.00 456.21,410.00 C457.20,410.00 458.00,409.55 458.00,409.00 C458.00,408.45 458.72,408.00 459.60,408.00 C461.73,408.00 473.72,401.65 477.50,398.52 C479.15,397.16 480.98,395.64 481.57,395.14 C482.17,394.65 484.93,392.61 487.72,390.61 C490.50,388.61 495.67,383.71 499.21,379.73 C506.44,371.59 515.61,359.01 514.34,358.98 C513.88,358.98 514.00,358.64 514.62,358.23 C515.89,357.40 521.33,347.00 520.49,347.00 C520.20,347.00 520.64,345.95 521.48,344.67 C522.32,343.39 522.71,342.04 522.34,341.67 C521.97,341.30 522.12,341.00 522.68,341.00 C523.59,341.00 525.99,334.74 526.51,331.00 C526.63,330.17 527.06,328.70 527.48,327.72 C527.90,326.74 528.34,324.72 528.46,323.22 C528.58,321.72 529.09,319.60 529.59,318.50 C530.71,316.04 530.70,279.22 529.58,276.48 C529.13,275.39 528.61,272.99 528.42,271.15 C528.23,269.31 527.61,267.24 527.05,266.56 C526.48,265.87 526.25,265.08 526.54,264.80 C527.28,264.05 521.97,249.64 520.62,248.77 C520.01,248.36 519.82,248.02 520.21,248.02 C521.68,247.98 512.94,231.63 510.05,229.00 C509.74,228.73 508.83,227.21 508.02,225.63 C507.20,224.05 504.84,221.01 502.77,218.88 C500.70,216.74 499.00,214.64 499.00,214.21 C499.00,212.95 490.55,205.00 489.21,205.00 C488.55,205.00 488.00,204.57 488.00,204.04 C488.00,203.52 483.84,200.38 478.75,197.07 C473.66,193.76 468.96,190.59 468.29,190.03 C467.63,189.46 466.83,189.00 466.51,189.00 C466.20,189.00 462.92,187.51 459.22,185.69 C440.17,176.31 411.63,173.20 388.00,177.91 C382.23,179.07 376.15,180.64 374.50,181.41 C372.85,182.18 369.48,183.61 367.00,184.58 C361.84,186.61 353.45,190.52 350.47,192.29 C343.60,196.37 331.93,205.35 328.61,209.10 C326.47,211.52 322.42,216.01 319.61,219.07 C316.80,222.13 313.60,226.24 312.50,228.20 C311.40,230.16 309.23,233.83 307.67,236.35 C303.34,243.39 296.06,263.33 293.30,275.72 C291.17,285.28 290.91,309.61 292.85,318.50 C297.86,341.58 307.49,361.89 320.24,376.28 C322.29,378.60 323.98,380.80 323.99,381.16 C324.00,381.81 334.70,391.13 341.04,396.00 C344.95,399.01 358.01,406.94 358.88,406.84 C361.05,406.58 362.98,407.25 364.93,408.94 C366.16,410.00 367.80,410.63 368.58,410.33 C369.36,410.03 370.00,410.31 370.00,410.95 C370.00,411.59 370.47,411.83 371.04,411.47 C371.62,411.12 373.14,411.51 374.42,412.35 C377.62,414.45 387.29,416.65 394.49,416.92 C397.17,417.02 399.59,417.23 400.52,417.43 C394.45,417.28 392.15,417.49 393.00,418.07 C394.98,419.44 429.61,418.79 431.04,417.36 ZM 301.28 744.19 C301.80,748.02 303.39,752.01 305.66,754.87 C303.05,752.04 301.54,748.42 301.28,744.19 ZM 322.20 761.33 C323.01,761.13 324.31,760.97 325.33,760.94 C324.26,761.16 323.23,761.29 322.20,761.33 ZM 312.44 759.45 C313.20,759.74 314.00,760.02 314.80,760.27 C313.98,760.03 313.19,759.76 312.44,759.45 Z" fill="rgb(24,107,252)"/>
<path d="M 0.00 406.50 L 0.00 0.00 L 406.50 0.00 L 813.00 0.00 L 813.00 406.50 L 813.00 813.00 L 406.50 813.00 L 0.00 813.00 L 0.00 406.50 ZM 333.50 757.92 C340.76,754.43 344.76,752.08 347.40,749.75 C348.48,748.79 350.64,747.44 352.19,746.76 C353.73,746.07 355.00,745.23 355.00,744.89 C355.00,744.55 358.04,742.17 361.75,739.60 C372.33,732.30 378.37,727.81 380.00,726.05 C380.83,725.16 383.74,722.65 386.47,720.46 C393.53,714.84 396.06,712.72 397.89,710.93 C398.78,710.06 405.80,703.93 413.50,697.30 C434.28,679.40 473.78,638.50 494.44,613.48 C497.16,610.19 500.42,606.38 501.69,605.00 C502.96,603.62 506.66,598.84 509.91,594.36 C513.16,589.89 516.22,586.06 516.71,585.86 C517.19,585.66 518.68,583.70 520.03,581.50 C521.37,579.30 524.35,575.20 526.64,572.38 C528.93,569.57 533.83,562.82 537.52,557.38 C541.21,551.95 544.93,546.71 545.78,545.74 C546.63,544.78 547.81,543.16 548.41,542.16 C549.60,540.16 555.30,531.37 560.51,523.50 C569.09,510.53 588.00,478.62 588.00,477.11 C588.00,476.71 589.14,474.84 590.53,472.95 C592.85,469.81 594.56,466.46 604.51,445.50 C608.26,437.60 613.99,425.25 616.34,420.00 C617.21,418.08 618.86,413.80 620.03,410.50 C621.19,407.20 622.55,403.60 623.05,402.50 C626.79,394.28 636.59,360.24 638.32,349.50 C638.58,347.85 639.48,342.23 640.30,337.00 C646.96,294.84 644.06,257.65 631.02,218.00 C628.94,211.68 625.58,202.90 623.55,198.50 C621.53,194.10 618.45,187.35 616.71,183.50 C614.97,179.65 612.40,174.70 610.99,172.50 C608.25,168.22 607.79,167.46 602.86,159.00 C601.10,155.98 598.38,152.02 596.83,150.22 C595.27,148.41 594.00,146.58 594.00,146.16 C594.00,145.73 592.75,144.06 591.23,142.44 C589.70,140.82 587.27,137.93 585.82,136.00 C583.13,132.42 570.74,119.68 560.75,110.23 C557.68,107.33 550.30,101.40 544.34,97.03 C538.38,92.67 532.71,88.41 531.75,87.55 C530.79,86.70 529.54,86.00 528.98,86.00 C528.42,86.00 526.06,84.78 523.73,83.29 C518.86,80.18 509.78,75.67 499.00,71.02 C494.88,69.24 491.07,67.38 490.55,66.89 C490.03,66.40 488.57,66.00 487.30,66.00 C486.04,66.00 485.00,65.50 485.00,64.89 C485.00,64.28 484.38,64.02 483.62,64.31 C482.87,64.60 481.10,64.25 479.70,63.52 C478.29,62.79 476.97,62.36 476.77,62.56 C476.56,62.77 473.61,62.09 470.21,61.06 C466.81,60.03 461.77,58.88 459.01,58.50 C456.26,58.12 454.00,57.37 454.00,56.84 C454.00,56.30 453.10,56.15 452.01,56.50 C450.91,56.84 449.45,56.77 448.76,56.34 C448.07,55.90 446.15,55.50 444.50,55.45 C442.85,55.39 434.75,54.78 426.50,54.09 C416.73,53.27 407.49,53.11 400.00,53.63 C393.67,54.07 387.49,54.31 386.25,54.18 C385.02,54.04 383.15,54.39 382.09,54.95 C381.04,55.52 378.00,56.05 375.34,56.13 C372.68,56.21 369.75,56.66 368.82,57.14 C367.90,57.61 365.43,58.19 363.32,58.44 C357.57,59.11 353.86,60.02 350.20,61.66 C348.38,62.48 345.23,63.41 343.20,63.73 C341.16,64.05 338.56,64.92 337.42,65.66 C336.28,66.40 335.01,66.68 334.62,66.28 C334.22,65.88 333.58,66.02 333.20,66.59 C332.81,67.16 329.80,68.67 326.50,69.95 C318.80,72.93 299.97,82.12 298.21,83.75 C297.47,84.44 296.25,85.00 295.51,85.00 C294.77,85.00 294.02,85.34 293.83,85.75 C293.65,86.17 290.58,88.41 287.00,90.73 C283.42,93.05 279.27,95.98 277.78,97.23 C276.28,98.48 273.47,100.62 271.53,102.00 C269.60,103.38 266.12,106.19 263.80,108.25 C261.48,110.31 259.22,112.00 258.79,112.00 C258.36,112.00 258.00,112.34 258.00,112.75 C257.99,113.16 253.80,117.80 248.67,123.05 C236.95,135.05 224.49,150.87 216.04,164.50 C213.65,168.35 211.31,171.65 210.84,171.84 C210.37,172.02 210.24,172.58 210.55,173.09 C210.86,173.59 210.64,174.00 210.06,174.00 C209.48,174.00 209.09,174.34 209.20,174.75 C209.31,175.16 208.01,178.20 206.32,181.50 C201.24,191.41 194.32,207.90 191.01,218.00 C189.29,223.23 187.63,228.18 187.31,229.00 C187.00,229.82 186.58,231.40 186.39,232.50 C186.21,233.60 184.89,239.23 183.47,245.00 C182.05,250.77 180.69,257.84 180.44,260.70 C180.19,263.56 179.58,266.97 179.09,268.26 C177.97,271.21 177.97,322.27 179.09,326.43 C179.54,328.12 180.15,331.75 180.43,334.50 C180.71,337.25 181.42,341.47 182.01,343.88 C182.59,346.29 182.83,348.50 182.54,348.79 C182.25,349.08 182.45,349.84 182.98,350.47 C183.50,351.11 184.15,353.17 184.42,355.06 C184.69,356.95 185.60,360.67 186.43,363.33 C187.27,365.98 187.89,368.45 187.82,368.83 C187.74,369.20 187.97,370.17 188.33,371.00 C190.33,375.64 192.75,383.91 192.25,384.42 C191.93,384.74 192.12,385.00 192.68,385.00 C193.64,385.00 196.56,392.70 196.18,394.25 C196.08,394.66 196.36,395.00 196.80,395.00 C197.65,395.00 200.54,402.00 200.20,403.25 C200.09,403.66 200.36,404.00 200.80,404.00 C201.24,404.00 202.13,405.46 202.78,407.25 C203.42,409.04 207.60,416.58 212.07,424.00 C216.53,431.42 220.99,438.88 221.97,440.57 C222.96,442.26 224.94,444.92 226.38,446.47 C227.82,448.02 229.00,449.90 229.00,450.65 C229.00,451.39 229.45,452.00 230.00,452.00 C230.55,452.00 231.00,452.67 231.00,453.50 C231.00,454.33 231.34,455.00 231.75,455.01 C232.16,455.01 233.62,456.70 235.00,458.76 C237.65,462.72 238.81,464.30 240.61,466.32 C243.70,469.82 261.36,493.80 262.27,495.75 C262.85,496.99 263.70,498.00 264.16,498.00 C264.62,498.00 265.00,498.64 265.00,499.42 C265.00,500.20 265.39,500.98 265.86,501.17 C267.14,501.66 281.00,523.22 281.00,524.71 C281.00,525.42 281.42,526.00 281.93,526.00 C282.45,526.00 283.18,527.01 283.57,528.25 C283.95,529.49 284.60,530.72 285.00,531.00 C285.81,531.56 297.47,553.21 297.39,554.00 C297.36,554.28 298.38,556.77 299.65,559.54 C303.14,567.17 306.99,578.21 306.46,579.07 C306.20,579.49 306.41,579.98 306.93,580.16 C307.45,580.35 308.03,581.62 308.21,583.00 C308.40,584.38 308.85,585.97 309.20,586.54 C310.25,588.21 313.09,601.24 312.53,601.80 C312.25,602.09 312.47,602.86 313.02,603.52 C313.57,604.19 314.22,607.04 314.45,609.87 C314.69,612.69 315.14,615.41 315.44,615.91 C316.06,616.91 317.44,639.70 317.36,647.50 C317.23,659.84 316.06,675.74 315.10,678.24 C314.53,679.75 314.29,681.60 314.58,682.35 C315.12,683.76 310.44,708.48 309.28,710.36 C308.92,710.94 308.48,712.75 308.30,714.38 C307.88,718.27 304.25,730.96 302.86,733.41 C302.27,734.46 301.57,737.84 301.32,740.91 C300.50,750.74 305.79,757.97 315.67,760.51 C321.86,762.11 326.04,761.50 333.50,757.92 ZM 400.90 417.57 C400.67,417.33 397.78,417.04 394.49,416.92 C387.29,416.65 377.62,414.45 374.42,412.35 C373.14,411.51 371.62,411.12 371.04,411.47 C370.47,411.83 370.00,411.59 370.00,410.95 C370.00,410.31 369.36,410.03 368.58,410.33 C367.80,410.63 366.16,410.00 364.93,408.94 C362.98,407.25 361.05,406.58 358.88,406.84 C358.01,406.94 344.95,399.01 341.04,396.00 C334.70,391.13 324.00,381.81 323.99,381.16 C323.98,380.80 322.29,378.60 320.24,376.28 C307.49,361.89 297.86,341.58 292.85,318.50 C290.91,309.61 291.17,285.28 293.30,275.72 C296.06,263.33 303.34,243.39 307.67,236.35 C309.23,233.83 311.40,230.16 312.50,228.20 C313.60,226.24 316.80,222.13 319.61,219.07 C322.42,216.01 326.47,211.52 328.61,209.10 C331.93,205.35 343.60,196.37 350.47,192.29 C353.45,190.52 361.84,186.61 367.00,184.58 C369.48,183.61 372.85,182.18 374.50,181.41 C376.15,180.64 382.23,179.07 388.00,177.91 C411.63,173.20 440.17,176.31 459.22,185.69 C462.92,187.51 466.20,189.00 466.51,189.00 C466.83,189.00 467.63,189.46 468.29,190.03 C468.96,190.59 473.66,193.76 478.75,197.07 C483.84,200.38 488.00,203.52 488.00,204.04 C488.00,204.57 488.55,205.00 489.21,205.00 C490.55,205.00 499.00,212.95 499.00,214.21 C499.00,214.64 500.70,216.74 502.77,218.88 C504.84,221.01 507.20,224.05 508.02,225.63 C508.83,227.21 509.74,228.73 510.05,229.00 C512.94,231.63 521.68,247.98 520.21,248.02 C519.82,248.02 520.01,248.36 520.62,248.77 C521.97,249.64 527.28,264.05 526.54,264.80 C526.25,265.08 526.48,265.87 527.05,266.56 C527.61,267.24 528.23,269.31 528.42,271.15 C528.61,272.99 529.13,275.39 529.58,276.48 C530.70,279.22 530.71,316.04 529.59,318.50 C529.09,319.60 528.58,321.72 528.46,323.22 C528.34,324.72 527.90,326.74 527.48,327.72 C527.06,328.70 526.63,330.17 526.51,331.00 C525.99,334.74 523.59,341.00 522.68,341.00 C522.12,341.00 521.97,341.30 522.34,341.67 C522.71,342.04 522.32,343.39 521.48,344.67 C520.64,345.95 520.20,347.00 520.49,347.00 C521.33,347.00 515.89,357.40 514.62,358.23 C514.00,358.64 513.88,358.98 514.34,358.98 C515.61,359.01 506.44,371.59 499.21,379.73 C495.67,383.71 490.50,388.61 487.72,390.61 C484.93,392.61 482.17,394.65 481.57,395.14 C480.98,395.64 479.15,397.16 477.50,398.52 C473.72,401.65 461.73,408.00 459.60,408.00 C458.72,408.00 458.00,408.45 458.00,409.00 C458.00,409.55 457.20,410.00 456.21,410.00 C455.23,410.00 452.66,410.90 450.50,412.00 C448.34,413.10 445.54,414.00 444.27,414.00 C443.01,414.00 441.19,414.41 440.24,414.90 C436.49,416.86 402.49,419.16 400.90,417.57 Z" fill="rgb(254,254,254)"/>
</g>
</svg>